<?xml version="1.0" encoding="utf-8"?>
<svg viewBox="0 0 500 500" xmlns="http://www.w3.org/2000/svg">
  <path d="M 485.442 152.916 C 484.574 149.651 483.051 146.392 481.095 143.565 C 480.226 141.824 478.705 140.086 477.184 138.347 L 411.34 70.063 C 398.08 56.148 373.952 56.148 360.474 70.063 L 214.659 221.632 L 209.225 227.067 L 209.225 227.286 L 193.792 242.507 L 178.576 257.946 L 122.948 313.834 L 116.427 320.575 C 115.992 321.01 115.774 321.228 115.557 321.662 C 104.471 333.404 102.949 350.801 111.21 364.284 C 111.427 364.284 111.427 364.502 111.427 364.719 L 117.948 371.243 C 117.948 371.46 118.166 371.678 118.383 371.894 L 183.792 439.742 C 190.53 446.701 199.661 450.615 209.225 450.615 C 218.789 450.615 228.136 446.701 234.658 439.742 L 297.891 374.068 L 477.184 187.708 C 478.705 186.187 480.009 184.447 481.095 182.707 C 482.183 181.184 483.051 179.663 483.703 178.141 C 487.617 170.311 488.268 161.179 485.442 152.916 Z M 171.402 219.24 L 186.618 203.8 L 135.773 150.74 C 122.297 137.041 98.167 137.041 84.691 150.74 L 19.064 219.24 C 5.587 233.157 5.587 254.686 19.064 268.604 L 75.779 327.534 C 78.604 317.964 83.387 308.615 90.559 300.787 C 91.429 299.698 92.299 298.612 93.384 297.525 L 100.341 290.348 L 155.967 234.462 L 171.402 219.24 Z" style="fill: rgb(48, 48, 48);"/>
</svg>