<!-- <svg width="229" height="46" viewBox="0 0 229 46" fill="none" xmlns="http://www.w3.org/2000/svg">
<path d="M28.3125 41.0938V46H5.5625V41.0938H28.3125ZM6.75 0.5V46H0.71875V0.5H6.75ZM64.125 41.0938V46H40.0312V41.0938H64.125ZM41.25 0.5V46H35.2188V0.5H41.25ZM60.9375 20.0625V24.9688H40.0312V20.0625H60.9375ZM63.8125 0.5V5.4375H40.0312V0.5H63.8125ZM88.4375 4.53125L73.375 46H67.2188L84.5625 0.5H88.5312L88.4375 4.53125ZM101.062 46L85.9688 4.53125L85.875 0.5H89.8438L107.25 46H101.062ZM100.281 29.1562V34.0938H74.7188V29.1562H100.281ZM125.656 46H116.156L116.219 41.0938H125.656C128.906 41.0938 131.615 40.4167 133.781 39.0625C135.948 37.6875 137.573 35.7708 138.656 33.3125C139.76 30.8333 140.312 27.9375 140.312 24.625V21.8438C140.312 19.2396 140 16.9271 139.375 14.9062C138.75 12.8646 137.833 11.1458 136.625 9.75C135.417 8.33333 133.938 7.26042 132.188 6.53125C130.458 5.80208 128.469 5.4375 126.219 5.4375H115.969V0.5H126.219C129.198 0.5 131.917 1 134.375 2C136.833 2.97917 138.948 4.40625 140.719 6.28125C142.51 8.13542 143.885 10.3854 144.844 13.0312C145.802 15.6562 146.281 18.6146 146.281 21.9062V24.625C146.281 27.9167 145.802 30.8854 144.844 33.5312C143.885 36.1562 142.5 38.3958 140.688 40.25C138.896 42.1042 136.729 43.5312 134.188 44.5312C131.667 45.5104 128.823 46 125.656 46ZM119.375 0.5V46H113.344V0.5H119.375ZM187.031 38.6875V46H154.781V38.6875H187.031ZM186.562 5.71875L158.938 46H152.344V40.625L180.188 0.5H186.562V5.71875ZM183.344 0.5V7.84375H152.375V0.5H183.344ZM199.25 0.5L208.75 21.25L218.25 0.5H228.469L213.5 29.4375V46H204V29.4375L189 0.5H199.25Z" fill="black"/>
</svg> -->


<svg width="239" height="60" viewBox="0 0 99 24" fill="none" xmlns="http://www.w3.org/2000/svg">
<path d="M4.4 6.2V16.52C4.4 16.8533 4.49333 17.1067 4.68 17.28C4.86667 17.4533 5.13333 17.54 5.48 17.54H10.3L10.44 19.84C9.49333 19.9467 8.5 20.0067 7.46 20.02C6.43333 20.0467 5.40667 20.06 4.38 20.06C3.38 20.06 2.62 19.7933 2.1 19.26C1.59333 18.7133 1.34 18.02 1.34 17.18V6.2H4.4ZM19.7427 6.14C20.4893 6.14 21.2427 6.14667 22.0027 6.16C22.7627 6.16 23.5093 6.17333 24.2427 6.2C24.976 6.22667 25.6627 6.27333 26.3027 6.34L26.1627 8.56H20.8627C20.5293 8.56 20.276 8.64667 20.1027 8.82C19.9427 8.99333 19.8627 9.24667 19.8627 9.58V16.62C19.8627 16.9533 19.9427 17.2067 20.1027 17.38C20.276 17.5533 20.5293 17.64 20.8627 17.64H26.1627L26.3027 19.86C25.6627 19.9133 24.976 19.96 24.2427 20C23.5093 20.0267 22.7627 20.04 22.0027 20.04C21.2427 20.0533 20.4893 20.06 19.7427 20.06C18.8627 20.06 18.1493 19.8067 17.6027 19.3C17.0693 18.78 16.8027 18.1067 16.8027 17.28V8.92C16.8027 8.08 17.0693 7.40667 17.6027 6.9C18.1493 6.39333 18.8627 6.14 19.7427 6.14ZM17.1627 11.74H25.4227V13.9H17.1627V11.74ZM39.8652 6.2C40.1185 6.2 40.3385 6.27333 40.5252 6.42C40.7252 6.56667 40.8585 6.76 40.9252 7L44.9252 20H41.8052L38.9852 9.86C38.9318 9.63333 38.8785 9.40667 38.8252 9.18C38.7718 8.94 38.7252 8.71333 38.6852 8.5H38.1452C38.1052 8.71333 38.0585 8.94 38.0052 9.18C37.9652 9.40667 37.9118 9.63333 37.8452 9.86L35.0252 20H31.8852L35.9052 7C35.9718 6.76 36.0985 6.56667 36.2852 6.42C36.4852 6.27333 36.7118 6.2 36.9652 6.2H39.8652ZM41.9852 14.06V16.36H34.8252V14.06H41.9852ZM56.5516 6C57.6449 6 58.5649 6.12 59.3116 6.36C60.0716 6.58667 60.6782 6.96667 61.1316 7.5C61.5982 8.03333 61.9382 8.76 62.1516 9.68C62.3649 10.5867 62.4716 11.7267 62.4716 13.1C62.4716 14.4733 62.3649 15.62 62.1516 16.54C61.9382 17.4467 61.5982 18.1667 61.1316 18.7C60.6782 19.2333 60.0716 19.62 59.3116 19.86C58.5649 20.0867 57.6449 20.2 56.5516 20.2C55.4982 20.2 54.5316 20.18 53.6516 20.14C52.7716 20.1 51.9316 20.0533 51.1316 20L52.4116 17.74C52.9182 17.7667 53.5182 17.7933 54.2116 17.82C54.9182 17.8333 55.6982 17.84 56.5516 17.84C57.2316 17.84 57.7649 17.7067 58.1516 17.44C58.5516 17.16 58.8316 16.6733 58.9916 15.98C59.1649 15.2867 59.2516 14.3267 59.2516 13.1C59.2516 11.8733 59.1649 10.9133 58.9916 10.22C58.8316 9.52667 58.5516 9.04 58.1516 8.76C57.7649 8.48 57.2316 8.34 56.5516 8.34C55.7382 8.34 55.0116 8.34667 54.3716 8.36C53.7316 8.36 53.1049 8.36 52.4916 8.36L51.1316 6.2C51.9316 6.14667 52.7649 6.1 53.6316 6.06C54.5116 6.02 55.4849 6 56.5516 6ZM54.1916 6.2V20H51.1316V6.2H54.1916ZM74.7639 9.22L79.5439 9.24L73.5639 16.98L68.7839 16.96L74.7639 9.22ZM79.7439 16.96V20H68.7839V16.96H79.7439ZM79.5439 6.2V9.24H68.9839V6.2H79.5439ZM98.3933 6.2L93.7333 15.9H89.5733L84.9133 6.2H89.3733L91.1133 10.54C91.2333 10.8333 91.3199 11.1533 91.3733 11.5C91.4266 11.8467 91.4799 12.1733 91.5333 12.48H91.7933C91.8466 12.1733 91.8999 11.8467 91.9533 11.5C92.0199 11.14 92.1066 10.8133 92.2133 10.52L93.9333 6.2H98.3933ZM93.8333 13.44V20H89.4933V13.44H93.8333Z" fill="#C2C2C2"/>
</svg>
