<svg width="25" height="14" viewBox="0 0 25 14" fill="none" xmlns="http://www.w3.org/2000/svg">
<path d="M1.06587 3.9502C1.21482 4.19301 1.4541 4.37101 1.7311 4.44506C2.00811 4.51911 2.30016 4.48316 2.54306 4.3451C7.14259 1.73103 11.0914 3.81546 14.4112 5.70723L21.0867 9.51116L14.8241 11.0995C14.6865 11.1318 14.5577 11.191 14.4453 11.2735C14.3328 11.356 14.239 11.4602 14.1693 11.58C14.0996 11.6998 14.0554 11.8327 14.0393 11.9712C14.0232 12.1096 14.0354 12.2507 14.0754 12.3863C14.1153 12.5218 14.1821 12.6491 14.2719 12.7607C14.3617 12.8722 14.4727 12.9659 14.5984 13.0361C14.724 13.1063 14.8619 13.1517 15.0039 13.1697C15.1459 13.1877 15.2893 13.1778 15.4255 13.1408L24.1783 10.9209C24.4518 10.8515 24.6824 10.6774 24.8194 10.437C24.9564 10.1965 24.9886 9.90937 24.9089 9.63868L22.3569 0.976937C22.3194 0.840808 22.2548 0.712489 22.167 0.59947C22.0791 0.486451 21.9697 0.390994 21.8452 0.318668C21.7208 0.246344 21.5836 0.198599 21.4419 0.17822C21.3001 0.15784 21.1566 0.165236 21.0196 0.199974C20.8826 0.234712 20.755 0.296096 20.6441 0.380547C20.5332 0.464998 20.4414 0.570822 20.3738 0.691846C20.3063 0.81287 20.2645 0.946669 20.2508 1.08544C20.2372 1.2242 20.2519 1.36516 20.2942 1.50008L22.1202 7.69756L15.4447 3.89363C12.171 2.02816 7.16064 -0.751286 1.42024 2.51363C1.17743 2.65182 1.00369 2.88078 0.93724 3.15016C0.870787 3.41955 0.917055 3.70732 1.06587 3.9502Z" fill="#C2C2C2"/>
</svg>
