<svg width="37" height="35" viewBox="0 0 37 35" fill="#4F4F4F" xmlns="http://www.w3.org/2000/svg">
<path d="M34.6922 17H26.4798C25.9919 16.9998 25.5165 17.1563 25.122 17.4471C24.7275 17.7378 24.4344 18.1478 24.2846 18.6181C23.8924 19.8588 23.1206 20.9411 22.0808 21.7083C21.0409 22.4754 19.787 22.8877 18.5005 22.8855C17.2139 22.8879 15.9599 22.4756 14.92 21.7084C13.8802 20.9412 13.1084 19.8589 12.7163 18.6181C12.5664 18.1478 12.273 17.7377 11.8784 17.447C11.4838 17.1562 11.0083 16.9997 10.5202 17H2.30775C2.00467 16.9999 1.70456 17.0603 1.42454 17.1778C1.14452 17.2952 0.890094 17.4673 0.675787 17.6843C0.46148 17.9013 0.291495 18.1589 0.175541 18.4425C0.0595878 18.726 -6.15843e-05 19.0299 4.77116e-08 19.3368V32.6641C0.000373116 33.2837 0.24366 33.8778 0.676393 34.3158C1.10913 34.7538 1.6959 34.9999 2.30775 35H34.6922C34.9952 35.0001 35.2953 34.9397 35.5752 34.8223C35.8552 34.705 36.1096 34.5329 36.3239 34.316C36.5382 34.0991 36.7082 33.8416 36.8242 33.5582C36.9402 33.2747 36.9999 32.9709 37 32.6641V19.3368C37 18.0451 35.9679 17 34.6922 17Z"/>
<path d="M17.983 18.7392C18.1067 18.9024 18.3091 19 18.5221 19H18.5236C18.738 19 18.9374 18.9024 19.0626 18.7369L25.8783 9.71525C25.9484 9.62168 25.9899 9.51184 25.9984 9.39763C26.0069 9.28343 25.982 9.16921 25.9264 9.06738C25.8707 8.96542 25.7862 8.87994 25.6821 8.82036C25.578 8.76078 25.4585 8.72943 25.3367 8.72977H22.1308V0.625239C22.1308 0.27867 21.8337 0 21.468 0H15.5331C15.1663 0 14.8703 0.27867 14.8703 0.625239V8.72977H11.6618C11.5402 8.72994 11.421 8.76159 11.3173 8.82125C11.2135 8.88092 11.1292 8.9663 11.0735 9.06805C11.0179 9.1698 10.993 9.284 11.0017 9.39815C11.0104 9.5123 11.0523 9.622 11.1228 9.71525L17.983 18.7392Z"/>
</svg>
