<!-- <svg width="57" height="57" viewBox="0 0 57 57" fill="none" xmlns="http://www.w3.org/2000/svg">
<path d="M47.1471 30.3951C47.1471 31.7024 47.3914 32.928 47.88 34.0719C48.3686 35.2158 49.0471 36.2236 49.9157 37.0951C50.7843 37.9667 51.7886 38.6476 52.9286 39.1378C54.0686 39.628 55.29 39.8732 56.5929 39.8732V47.4719H0V39.8732C1.30286 39.8732 2.52429 39.628 3.66429 39.1378C4.80429 38.6476 5.80857 37.9667 6.67714 37.0951C7.54571 36.2236 8.22429 35.2158 8.71286 34.0719C9.20143 32.928 9.44571 31.7024 9.44571 30.3951V19.0378C9.44571 16.4232 9.93429 13.9719 10.9114 11.6841C11.8886 9.39633 13.2457 7.38088 14.9829 5.63779C16.72 3.8947 18.7014 2.53292 20.9271 1.55243C23.1529 0.57194 25.5957 0.0816956 28.2557 0.0816956C30.9157 0.0816956 33.3586 0.57194 35.5843 1.55243C37.81 2.53292 39.8186 3.8947 41.61 5.63779C43.4014 7.38088 44.7586 9.39633 45.6814 11.6841C46.6043 13.9719 47.0929 16.4232 47.1471 19.0378V30.3951ZM28.2557 56.8683C26.5186 56.8683 24.9986 56.3236 23.6957 55.2341C22.3929 54.1447 21.4971 52.8102 21.0086 51.2305H35.5843C35.15 52.8646 34.2814 54.1992 32.9786 55.2341C31.6757 56.2691 30.1014 56.8138 28.2557 56.8683Z" fill="#303030"/>
</svg>
 -->
<!-- 
<svg width="50" height="50" viewBox="0 0 12 13" fill="none" xmlns="http://www.w3.org/2000/svg">
<path d="M8.01387 11.6316C8.01398 11.9768 7.88606 12.3093 7.65575 12.5625C7.42544 12.8156 7.10977 12.9707 6.77202 12.9966L6.67133 13H5.32878C4.99007 13.0001 4.66384 12.8697 4.41548 12.635C4.16712 12.4002 4.01499 12.0785 3.98959 11.7342L3.98623 11.6316H8.01387ZM6.00005 6.52783e-10C7.2184 -2.04887e-05 8.38912 0.482296 9.26528 1.34521C10.1414 2.20812 10.6545 3.38417 10.6963 4.62526L10.699 4.78947V7.36484L11.922 9.85811C11.9754 9.9669 12.0021 10.0872 11.9999 10.2089C11.9976 10.3305 11.9665 10.4497 11.9092 10.5564C11.8518 10.6631 11.77 10.754 11.6706 10.8214C11.5713 10.8887 11.4574 10.9306 11.3387 10.9433L11.2615 10.9474H0.738618C0.619242 10.9474 0.501636 10.9179 0.39588 10.8615C0.290124 10.8051 0.199371 10.7233 0.131396 10.6233C0.063422 10.5233 0.020254 10.4079 0.00559128 10.2872C-0.00907141 10.1664 0.00520852 10.0438 0.0472073 9.92995L0.0780859 9.85811L1.30114 7.36484V4.78947C1.30114 3.51923 1.79621 2.301 2.67742 1.4028C3.55864 0.504604 4.75382 6.52784e-10 6.00005 6.52783e-10Z" fill="#4F4F4F"/>
</svg> -->

<svg width="32" height="34" viewBox="0 0 32 34" fill="none" xmlns="http://www.w3.org/2000/svg">
<path d="M25.999 17.9779H28.9995C30.6564 17.9779 32 19.32 32 20.9749C32 22.6298 30.6564 23.9719 28.9995 23.9719H3.00052C1.34364 23.9719 0 22.6298 0 20.9749C0 19.32 1.34364 17.9779 3.00052 17.9779H6.00103L7.11798 7.94124C7.62081 3.42103 11.4456 0 16 0C20.5544 0 24.3792 3.42103 24.882 7.94124L25.999 17.9779Z" fill="#4F4F4F"/>
<path d="M15.9999 25.9688C18.2091 25.9688 19.9978 27.7554 19.9978 29.962C19.9978 32.1686 18.2091 33.9553 15.9999 33.9553C13.7907 33.9553 12.002 32.1686 12.002 29.962C12.002 27.7554 13.7907 25.9688 15.9999 25.9688Z" fill="#4F4F4F"/>
</svg>
