<svg width="283" height="283" viewBox="0 0 283 283" fill="none" xmlns="http://www.w3.org/2000/svg">
<path d="M185.719 229.938H35.375C30.684 229.938 26.1851 228.074 22.868 224.757C19.551 221.44 17.6875 216.941 17.6875 212.25V70.75C17.6875 66.059 19.551 61.5601 22.868 58.243C26.1851 54.926 30.684 53.0625 35.375 53.0625H185.719C190.41 53.0625 194.909 54.926 198.226 58.243C201.543 61.5601 203.406 66.059 203.406 70.75V106.656L251.339 72.4303C252.659 71.4905 254.212 70.9314 255.828 70.814C257.444 70.6966 259.061 71.0255 260.503 71.7647C261.945 72.5039 263.156 73.625 264.004 75.0057C264.853 76.3863 265.305 77.9734 265.312 79.5938V203.406C265.305 205.027 264.853 206.614 264.004 207.994C263.156 209.375 261.945 210.496 260.503 211.235C259.061 211.975 257.444 212.303 255.828 212.186C254.212 212.069 252.659 211.509 251.339 210.57L203.406 176.344V212.25C203.406 216.941 201.543 221.44 198.226 224.757C194.909 228.074 190.41 229.938 185.719 229.938Z" fill="#C4C4C4"/>
</svg>
