<svg width="10" height="9" viewBox="0 0 10 9" fill="none" xmlns="http://www.w3.org/2000/svg">
<path d="M5 7.25C5.625 7.25 6.15633 7.03117 6.594 6.5935C7.03167 6.15583 7.25033 5.62467 7.25 5C7.25 4.375 7.03117 3.84367 6.5935 3.406C6.15583 2.96833 5.62467 2.74967 5 2.75C4.375 2.75 3.84367 2.96883 3.406 3.4065C2.96833 3.84417 2.74967 4.37533 2.75 5C2.75 5.625 2.96883 6.15633 3.4065 6.594C3.84417 7.03167 4.37533 7.25033 5 7.25ZM5 6.25C4.65 6.25 4.35417 6.12917 4.1125 5.8875C3.87083 5.64583 3.75 5.35 3.75 5C3.75 4.65 3.87083 4.35417 4.1125 4.1125C4.35417 3.87083 4.65 3.75 5 3.75C5.35 3.75 5.64583 3.87083 5.8875 4.1125C6.12917 4.35417 6.25 4.65 6.25 5C6.25 5.35 6.12917 5.64583 5.8875 5.8875C5.64583 6.12917 5.35 6.25 5 6.25ZM1 9C0.725001 9 0.489501 8.902 0.293501 8.706C0.0975008 8.51 -0.000332484 8.27467 8.48897e-07 8V2C8.48897e-07 1.725 0.0980009 1.4895 0.294001 1.2935C0.490001 1.0975 0.725334 0.999667 1 1H2.575L3.5 0H6.5L7.425 1H9C9.275 1 9.5105 1.098 9.7065 1.294C9.9025 1.49 10.0003 1.72533 10 2V8C10 8.275 9.902 8.5105 9.706 8.7065C9.51 8.9025 9.27467 9.00033 9 9H1Z" fill="#C2C2C2"/>
</svg>
