<svg width="101" height="100" viewBox="0 0 101 100" fill="none" xmlns="http://www.w3.org/2000/svg">
<path d="M100.332 89.3333L57.6652 4C54.9985 -1.33333 47.6652 -1.33333 44.9985 4L1.66521 89.3333C-1.00146 94 2.99854 100 8.33187 100H93.6652C98.9985 100 102.332 94 100.332 89.3333ZM50.9985 86.6667C45.6652 86.6667 40.9985 82 40.9985 76.6667C40.9985 71.3333 44.9985 66.6667 50.9985 66.6667C56.9985 66.6667 60.9985 71.3333 60.9985 76.6667C60.9985 82.6667 56.3319 86.6667 50.9985 86.6667ZM57.6652 60H44.3319L40.9985 36.6667C40.9985 34.6667 42.3319 33.3333 44.3319 33.3333H57.6652C59.6652 33.3333 60.9985 34.6667 60.9985 36.6667L57.6652 60Z" fill="#FFD233"/>
</svg>
