<!-- <svg width="10" height="9" viewBox="0 0 10 9" fill="none" xmlns="http://www.w3.org/2000/svg">
<path d="M8.75 0C9.08152 0 9.39946 0.124007 9.63388 0.34474C9.8683 0.565474 10 0.864853 10 1.17702V8.70581C9.99999 8.76403 9.98163 8.82094 9.94725 8.86934C9.91287 8.91774 9.86402 8.95544 9.80688 8.97768C9.74973 8.99993 9.68686 9.0057 9.62623 8.99429C9.56559 8.98287 9.50992 8.95477 9.46625 8.91355L7.68313 7.23454C7.56594 7.12416 7.407 7.06214 7.24125 7.0621H1.25C0.918479 7.0621 0.600537 6.9381 0.366117 6.71736C0.131696 6.49663 0 6.19725 0 5.88509V1.17702C0 0.864853 0.131696 0.565474 0.366117 0.34474C0.600537 0.124007 0.918479 0 1.25 0L8.75 0Z" fill="#C2C2C2"/>
</svg> -->


<svg width="23" height="22" viewBox="0 0 23 22" fill="none" xmlns="http://www.w3.org/2000/svg">
<path d="M22.6651 14.5101L22.6939 14.498V19.8475C22.6939 20.4919 22.1722 21.0136 21.5279 21.0136C21.2177 21.0136 20.922 20.891 20.7032 20.6722L18.0273 17.9962H3.9984C2.06538 17.9962 0.497803 16.4287 0.497803 14.4956V3.99865C0.497803 2.06562 2.06538 0.498047 3.9984 0.498047H19.1645C21.0975 0.498047 22.6651 2.06562 22.6651 3.99865V14.498C22.6651 14.498 22.6651 14.5053 22.6651 14.5101Z" fill="#BFBFBF"/>
<path d="M5.74908 11.0006C4.78257 11.0006 3.99878 10.2168 3.99878 9.2503C3.99878 8.28379 4.78257 7.5 5.74908 7.5C6.71559 7.5 7.49938 8.28379 7.49938 9.2503C7.49938 10.2168 6.71559 11.0006 5.74908 11.0006ZM11.5818 11.0006C10.6153 11.0006 9.83151 10.2168 9.83151 9.2503C9.83151 8.28379 10.6153 7.5 11.5818 7.5C12.5483 7.5 13.3321 8.28379 13.3321 9.2503C13.3321 10.2168 12.5483 11.0006 11.5818 11.0006ZM17.4145 11.0006C16.448 11.0006 15.6642 10.2168 15.6642 9.2503C15.6642 8.28379 16.448 7.5 17.4145 7.5C18.3811 7.5 19.1648 8.28379 19.1648 9.2503C19.1648 10.2168 18.3811 11.0006 17.4145 11.0006Z" fill="#1D252B"/>
</svg>
