<svg width="41" height="33" viewBox="0 0 41 33" fill="none" xmlns="http://www.w3.org/2000/svg">
<path d="M11.2083 28.321L0.483253 17.596C-0.161084 16.9516 -0.161084 15.9069 0.483253 15.2625L2.81665 12.9291C3.46099 12.2846 4.50577 12.2846 5.15011 12.9291L12.375 20.1539L27.8499 4.67905C28.4942 4.03472 29.539 4.03472 30.1833 4.67905L32.5167 7.01251C33.161 7.65685 33.161 8.70157 32.5167 9.34597L13.5417 28.321C12.8973 28.9654 11.8526 28.9654 11.2083 28.321V28.321Z" fill="url(#paint0_linear_0_1)"/>
<path d="M19.2083 28.321L8.48325 17.596C7.83892 16.9516 7.83892 15.9069 8.48325 15.2625L10.8166 12.9291C11.461 12.2846 12.5058 12.2846 13.1501 12.9291L20.375 20.1539L35.8499 4.67905C36.4942 4.03472 37.539 4.03472 38.1833 4.67905L40.5167 7.01251C41.161 7.65685 41.161 8.70157 40.5167 9.34597L21.5417 28.321C20.8973 28.9654 19.8526 28.9654 19.2083 28.321V28.321Z" fill="url(#paint1_linear_0_1)"/>
<defs>
<linearGradient id="paint0_linear_0_1" x1="16.5" y1="4.1958" x2="16.5" y2="28.8043" gradientUnits="userSpaceOnUse">
<stop stop-color="#FF644E"/>
<stop offset="1" stop-color="#ED0373"/>
</linearGradient>
<linearGradient id="paint1_linear_0_1" x1="24.5" y1="4.1958" x2="24.5" y2="28.8043" gradientUnits="userSpaceOnUse">
<stop stop-color="#ED0373"/>
<stop offset="1" stop-color="#FF644E"/>
</linearGradient>
</defs>
</svg>

