<svg width="103" height="102" viewBox="0 0 103 102" fill="none" xmlns="http://www.w3.org/2000/svg">
<path d="M101.63 60.2824C102.772 61.136 103.2 62.2741 102.914 63.6967C101.868 68.0593 100.299 72.1374 98.2061 75.931C97.9207 76.5948 97.4927 77.069 96.922 77.3536C96.3513 77.6381 95.6379 77.6855 94.7819 77.4958C92.6893 77.1165 90.6443 77.2113 88.6468 77.7803C86.6493 78.3494 84.7946 79.4874 83.0824 81.1946C81.3703 82.9017 80.2765 84.7985 79.8009 86.8849C79.3253 88.9714 79.2302 91.1527 79.5155 93.4289C79.8009 94.9463 79.3253 96.0844 78.0888 96.8431C74.189 99.1192 70.2892 100.779 66.3894 101.822C64.8675 102.296 63.631 101.822 62.6798 100.4C61.5384 98.5028 60.0165 96.9854 58.1142 95.8473C56.2118 94.7092 54.0241 94.1402 51.5511 94.1402C49.078 94.1402 46.9379 94.7092 45.1306 95.8473C43.3234 96.9854 41.7064 98.5028 40.2797 100.4C39.4236 101.822 38.2346 102.296 36.7128 101.822C32.5276 100.684 28.6278 99.0244 25.0133 96.8431C23.5866 96.0844 23.0634 94.9463 23.4439 93.4289C23.9195 91.2476 23.8719 89.0663 23.3012 86.8849C22.7305 84.7036 21.6367 82.8068 20.0197 81.1946C18.4027 79.5823 16.5479 78.4442 14.4553 77.7803C12.3627 77.1165 10.2702 77.0216 8.17758 77.4958C6.65571 77.8752 5.5143 77.3536 4.75336 75.931C2.66078 71.9477 1.1389 67.8696 0.187731 63.6967C-0.287855 62.2741 0.140173 61.136 1.47181 60.2824C3.08881 59.0495 4.42045 57.4847 5.46674 55.5879C6.51303 53.6911 7.0124 51.6994 6.96484 49.613C6.91728 47.5265 6.46547 45.6297 5.60942 43.9226C4.75336 42.2155 3.56439 40.7455 2.04252 39.5126C0.901111 38.4693 0.520642 37.3312 0.901111 36.0983C2.32787 31.546 4.23022 27.3257 6.60815 23.4372C7.27397 22.2992 8.22514 21.825 9.46167 22.0146C11.364 22.2043 13.2664 21.9672 15.1687 21.3033C17.071 20.6395 18.688 19.5962 20.0197 18.1736C22.7781 15.4233 24.0622 12.1513 23.8719 8.35774C23.7768 7.12483 24.3 6.17643 25.4414 5.51255C29.6265 3.04672 34.097 1.24477 38.8529 0.106695C40.0894 -0.177824 41.0882 0.106695 41.8491 0.960251C43.0856 2.28801 44.5599 3.33124 46.2721 4.08996C47.9842 4.84868 49.7438 5.22803 51.5511 5.22803C53.3583 5.22803 55.118 4.84868 56.8301 4.08996C58.5422 3.33124 59.9689 2.28801 61.1104 0.960251C61.9664 0.106695 63.0127 -0.177824 64.2492 0.106695C69.0051 1.24477 73.4756 3.04672 77.6608 5.51255C78.707 6.08159 79.2302 7.02999 79.2302 8.35774C79.04 12.1513 80.324 15.4233 83.0824 18.1736C84.5092 19.5962 86.1262 20.6395 87.9334 21.3033C89.7407 21.9672 91.5954 22.2043 93.4978 22.0146C94.7343 21.825 95.733 22.2992 96.494 23.4372C98.8719 27.3257 100.774 31.546 102.201 36.0983C102.486 37.4261 102.106 38.5642 101.06 39.5126C99.5377 40.7455 98.3488 42.2155 97.4927 43.9226C96.6367 45.6297 96.2086 47.5502 96.2086 49.6841C96.2086 51.818 96.7318 53.7859 97.7781 55.5879C98.8244 57.3898 100.108 58.9547 101.63 60.2824ZM51.5511 71.0941C54.3095 71.0941 56.9252 70.5725 59.3982 69.5293C61.8713 68.4861 63.9639 67.0635 65.676 65.2615C67.3881 63.4596 68.7673 61.3731 69.8136 59.0021C70.8599 56.6311 71.383 54.0704 71.383 51.3201C71.383 48.5697 70.8599 45.9616 69.8136 43.4958C68.7673 41.03 67.3881 38.9435 65.676 37.2364C63.9639 35.5293 61.8713 34.1541 59.3982 33.1109C56.9252 32.0676 54.3095 31.546 51.5511 31.546C48.7927 31.546 46.2245 32.0676 43.8466 33.1109C41.4686 34.1541 39.3761 35.5293 37.5688 37.2364C35.7616 38.9435 34.3348 41.03 33.2885 43.4958C32.2423 45.9616 31.7191 48.5697 31.7191 51.3201C31.7191 54.0704 32.2423 56.6311 33.2885 59.0021C34.3348 61.3731 35.7616 63.4596 37.5688 65.2615C39.3761 67.0635 41.4686 68.4861 43.8466 69.5293C46.2245 70.5725 48.7927 71.0941 51.5511 71.0941Z" fill="#303030"/>
</svg>
