<!-- <svg width="10" height="11" viewBox="0 0 10 11" fill="none" xmlns="http://www.w3.org/2000/svg">
<path d="M6.5 2.16667H3.79167C3.50435 2.16667 3.2288 2.2808 3.02563 2.48397C2.82247 2.68713 2.70833 2.96268 2.70833 3.25V8.125H1.08333C0.796016 8.125 0.520465 8.01086 0.317301 7.8077C0.114137 7.60453 0 7.32898 0 7.04167V1.08333C0 0.796016 0.114137 0.520465 0.317301 0.317301C0.520465 0.114137 0.796016 0 1.08333 0L5.41667 0C5.70398 0 5.97953 0.114137 6.1827 0.317301C6.38586 0.520465 6.5 0.796016 6.5 1.08333V2.16667ZM4.33333 2.70833H8.125L9.75 4.33333V9.75C9.75 10.0373 9.63586 10.3129 9.4327 10.516C9.22954 10.7192 8.95399 10.8333 8.66667 10.8333H4.33333C4.04602 10.8333 3.77047 10.7192 3.5673 10.516C3.36414 10.3129 3.25 10.0373 3.25 9.75V3.79167C3.25 3.50435 3.36414 3.2288 3.5673 3.02563C3.77047 2.82247 4.04602 2.70833 4.33333 2.70833Z" fill="#C2C2C2"/>
</svg> -->


<svg width="18" height="24" viewBox="0 0 18 24" fill="none" xmlns="http://www.w3.org/2000/svg">
<path d="M4.66659 2.25V2.7925C4.66659 3.68998 5.39439 4.41778 6.29186 4.41778H11.708C12.6054 4.41778 13.3333 3.68998 13.3333 2.7925V2.25H15.4988C16.6954 2.25 17.6644 3.21892 17.6644 4.41555V21.7489C17.6644 22.9455 16.6954 23.9144 15.4988 23.9144H2.4988C1.30217 23.9144 0.333252 22.9455 0.333252 21.7489V4.41555C0.333252 3.21892 1.30217 2.25 2.4988 2.25H4.66435H4.66659Z" fill="#BFBFBF"/>
<path d="M7.9173 1.16481C7.9173 0.566489 8.40175 0.0820312 9.00007 0.0820312C9.59839 0.0820312 10.0828 0.566489 10.0828 1.16481H11.7081C12.0073 1.16481 12.2506 1.40815 12.2506 1.70731V2.79009C12.2506 3.08924 12.0073 3.33259 11.7081 3.33259H6.29202C5.99286 3.33259 5.74951 3.08924 5.74951 2.79009V1.70731C5.74951 1.40815 5.99286 1.16481 6.29202 1.16481H7.9173Z" fill="#BFBFBF"/>
<path d="M4.66676 9.83203H7.91732C8.51564 9.83203 9.00009 10.3165 9.00009 10.9148C9.00009 11.5131 8.51564 11.9976 7.91732 11.9976H4.66676C4.06844 11.9976 3.58398 11.5131 3.58398 10.9148C3.58398 10.3165 4.06844 9.83203 4.66676 9.83203Z" fill="#1D252B"/>
<path d="M4.66676 14.166H12.2507C12.849 14.166 13.3334 14.6505 13.3334 15.2488C13.3334 15.8471 12.849 16.3316 12.2507 16.3316H4.66676C4.06844 16.3316 3.58398 15.8471 3.58398 15.2488C3.58398 14.6505 4.06844 14.166 4.66676 14.166Z" fill="#1D252B"/>
</svg>
