<svg width="658" height="658" viewBox="0 0 658 658" fill="none" xmlns="http://www.w3.org/2000/svg">
<path d="M381.091 603.167C375.159 603.167 369.387 601.243 364.641 597.683L254.975 514.063C251.62 511.48 248.909 508.156 247.054 504.351C245.199 500.546 244.25 496.362 244.282 492.129V402.477L112.682 149.695C110.515 145.512 109.462 140.84 109.626 136.132C109.789 131.423 111.164 126.836 113.616 122.813C116.068 118.79 119.516 115.467 123.627 113.164C127.737 110.861 132.372 109.657 137.083 109.667H520.917C525.674 109.667 530.35 110.907 534.484 113.262C538.618 115.617 542.068 119.008 544.495 123.101C546.901 127.269 548.168 131.997 548.168 136.809C548.168 141.622 546.901 146.35 544.495 150.517L407.411 403.025V575.75C407.447 580.86 406.054 585.877 403.39 590.237C400.725 594.597 396.895 598.126 392.332 600.425C388.823 602.128 384.991 603.063 381.091 603.167V603.167Z" fill="#C4C4C4"/>
</svg>
