<?xml version="1.0" encoding="UTF-8"?><svg id="Layer_2" xmlns="http://www.w3.org/2000/svg" viewBox="0 0 329.23 109.59"><defs><style>.cls-1{fill:#bfbfbf;}</style></defs><g id="Layer_1-2"><path class="cls-1" d="m11.98,0c1.13,0,1.69.56,1.69,1.69v83.04c0,1.13-.56,1.69-1.69,1.69H1.69c-1.13,0-1.69-.56-1.69-1.69V1.69C0,.56.56,0,1.69,0h10.28Z"/><path class="cls-1" d="m73.1,54.01v3.39c0,2.15-.68,3.05-3.84,3.05h-35.82c.34,11.98,3.05,14.69,14.01,14.69h19.32c1.13,0,1.69.56,1.69,1.69v7c0,1.24-.56,1.69-1.58,1.92-5.99.9-12.99,1.24-20.22,1.24-22.03,0-27-6.33-27-31.75s4.97-31.86,27-31.86,26.21,6.1,26.44,30.62Zm-39.66-3.39h25.87c-.11-12.2-2.6-15.37-12.65-15.37s-13.11,3.16-13.22,15.37Z"/><path class="cls-1" d="m125.97,41.92v39.32c0,1.47-.23,2.6-2.26,3.28-5.87,1.69-15.82,2.49-25.42,2.49-15.82,0-23.84-2.49-23.84-18.87,0-14.35,7.57-17.96,21.47-17.96h16.38v-5.87c0-6.33-3.73-9.04-12.77-9.04h-18.53c-1.36,0-1.69-.34-1.69-1.69v-6.89c0-1.36.45-1.58,1.58-1.81,6.78-1.24,12.88-1.47,18.64-1.47,19.89,0,26.44,6.33,26.44,18.53Zm-29.26,18.08c-5.99,0-8.7,1.92-8.7,7.57,0,6.44,3.05,8.02,11.41,8.02,2.82,0,9.04-.23,12.88-1.24v-14.35h-15.59Z"/><path class="cls-1" d="m183.71.11c1.24,0,1.69.45,1.69,1.69v80.78c0,1.58-.68,2.15-2.03,2.37-9.6,1.58-16.04,2.03-24.18,2.03-22.82,0-27.79-6.44-27.79-31.75s4.97-31.86,25.87-31.86c5.88,0,10.73.23,14.46.68V1.81c0-1.24.56-1.69,1.69-1.69h10.28Zm-24.29,35.14c-12.65,0-14.35,3.73-14.35,20,0,15.37,1.24,19.88,14.01,19.88,3.5,0,8.7-.34,12.65-.9v-38.98h-12.31Z"/><path class="cls-1" d="m238.84,23.95c1.24,0,1.81.56,1.81,1.69v5.08c0,.79-.23,1.36-.68,2.03l-30.73,41.8h30.84c1.24,0,1.92.56,1.92,1.69v8.47c0,1.13-.68,1.69-1.92,1.69h-48.81c-1.13,0-1.81-.56-1.81-1.69v-5.31c0-.79.11-1.36.79-2.03l30.84-41.69h-28.47c-1.24,0-1.81-.68-1.81-1.81v-8.25c0-1.13.56-1.69,1.81-1.69h46.21Z"/><path class="cls-1" d="m298.38,23.95c1.13,0,1.69.56,1.69,1.69v57.17c-.11,19.66-3.95,26.78-26.89,26.78-7.57,0-12.88-.34-19.09-1.24-1.02-.23-1.47-.79-1.47-1.81v-6.67c0-1.24.45-1.69,1.58-1.69h18.19c11.3,0,14.01-2.71,14.01-11.64v-.56c-4.86.79-9.15,1.02-14.46,1.02-20.9,0-26.21-7.12-26.21-29.94v-31.41c0-1.13.56-1.69,1.69-1.69h10.28c1.13,0,1.69.56,1.69,1.69v29.49c0,16.16,2.03,19.88,14.69,19.88,3.73,0,8.36-.11,12.32-.68V25.65c0-1.13.56-1.69,1.69-1.69h10.28Z"/><circle class="cls-1" cx="318.11" cy="75.14" r="11.13"/></g></svg>