<?xml version="1.0" encoding="utf-8"?>
<!-- Generator: Adobe Illustrator 22.0.1, SVG Export Plug-In . SVG Version: 6.00 Build 0)  -->
<svg version="1.1" id="Layer_2_1_" xmlns="http://www.w3.org/2000/svg" xmlns:xlink="http://www.w3.org/1999/xlink" x="0px" y="0px"
	 viewBox="0 0 329.2 109.6" style="enable-background:new 0 0 329.2 109.6;" xml:space="preserve">
<style type="text/css">
	.st0{fill:#BFBFBF;}
</style>
<path class="st0" d="M316.1,1.8v15.8h8.9v11.9h-8.9v35.1c0,8.1,2.3,12.6,8.9,12.6c3.1,0,2.4-0.4,3.9-0.8l0.5,8.9
	c-2.3,0.9-2.9,1.6-7.5,1.6c-5.5,0-11.8-1.7-14.6-5c-3.4-3.5-4.6-9.3-4.6-16.9V29.5h-8.3V17.7h8.3V1.8H316.1z"/>
<path class="st0" d="M294.6,54v3.4c0,2.2-0.7,3-3.8,3H255c0.3,12,3.1,14.7,14,14.7h19.3c1.1,0,1.7,0.6,1.7,1.7v7
	c0,1.2-0.6,1.7-1.6,1.9c-6,0.9-13,1.2-20.2,1.2c-22,0-27-6.3-27-31.8s5-31.9,27-31.9S294.4,29.5,294.6,54L294.6,54z M255,50.6h25.9
	c-0.1-12.2-2.6-15.4-12.7-15.4C258.1,35.3,255.1,38.4,255,50.6z"/>
<path class="st0" d="M186.7,1.5c-1.2,0-1.7,0.5-1.7,1.7V84c0,1.6,0.7,2.2,2,2.4c9.6,1.6,16,2,24.2,2c22.8,0,27.8-6.4,27.8-31.8
	s-5-31.9-25.9-31.9c-5.9,0-10.7,0.2-14.5,0.7V3.2c0-1.2-0.6-1.7-1.7-1.7L186.7,1.5L186.7,1.5z M211,36.6c12.6,0,14.4,3.7,14.4,20
	c0,15.4-1.2,19.9-14,19.9c-3.5,0-8.7-0.3-12.6-0.9v-39L211,36.6L211,36.6z"/>
<path class="st0" d="M178.8,2.1c1.2,0,1.7,0.5,1.7,1.7v80.8c0,1.6-0.7,2.2-2,2.4c-9.6,1.6-16,2-24.2,2c-22.8,0-27.8-6.4-27.8-31.8
	s5-31.9,25.9-31.9c5.9,0,10.7,0.2,14.5,0.7V3.8c0-1.2,0.6-1.7,1.7-1.7L178.8,2.1L178.8,2.1z M154.5,37.3c-12.6,0-14.4,3.7-14.4,20
	c0,15.4,1.2,19.9,14,19.9c3.5,0,8.7-0.3,12.6-0.9v-39L154.5,37.3L154.5,37.3z"/>
<path class="st0" d="M122.9,41.9v39.3c0,1.5-0.2,2.6-2.3,3.3c-5.9,1.7-15.8,2.5-25.4,2.5c-15.8,0-23.8-2.5-23.8-18.9
	c0-14.3,7.6-18,21.5-18h16.4v-5.9c0-6.3-3.7-9-12.8-9H77.9c-1.4,0-1.7-0.3-1.7-1.7v-6.9c0-1.4,0.4-1.6,1.6-1.8
	c6.8-1.2,12.9-1.5,18.6-1.5C116.3,23.4,122.9,29.7,122.9,41.9L122.9,41.9z M93.6,60c-6,0-8.7,1.9-8.7,7.6c0,6.4,3.1,8,11.4,8
	c2.8,0,9-0.2,12.9-1.2V60C109.2,60,93.6,60,93.6,60z"/>
<path class="st0" d="M70.3,54v3.4c0,2.2-0.7,3-3.8,3H30.6c0.3,12,3,14.7,14,14.7h19.3c1.1,0,1.7,0.6,1.7,1.7v7
	c0,1.2-0.6,1.7-1.6,1.9c-6,0.9-13,1.2-20.2,1.2c-22,0-27-6.3-27-31.8s5-31.9,27-31.9S70,29.5,70.3,54L70.3,54z M30.6,50.6h25.9
	c-0.1-12.2-2.6-15.4-12.7-15.4S30.7,38.4,30.6,50.6z"/>
<path class="st0" d="M12,0c1.1,0,1.7,0.6,1.7,1.7v83c0,1.1-0.6,1.7-1.7,1.7H1.7c-1.1,0-1.7-0.6-1.7-1.7v-83C0,0.6,0.6,0,1.7,0H12
	L12,0z"/>
</svg>
