<svg width="106" height="41" viewBox="0 0 106 41" fill="none" xmlns="http://www.w3.org/2000/svg">
<path d="M3.83384 0C4.19546 0 4.37468 0.180933 4.37468 0.54603V27.3758C4.37468 27.7409 4.19546 27.9218 3.83384 27.9218H0.540834C0.179211 27.9218 0 27.7409 0 27.3758V0.54603C0 0.180933 0.179211 0 0.540834 0H3.83064H3.83384Z" fill="#BFBFBF"/>
<path d="M23.3935 17.4491V18.5444C23.3935 19.2391 23.1759 19.5299 22.1646 19.5299H10.7015C10.8103 23.4005 11.6776 24.2761 15.185 24.2761H21.3678C21.7294 24.2761 21.9086 24.4571 21.9086 24.8222V27.0838C21.9086 27.4845 21.7294 27.6298 21.403 27.7042C19.4861 27.9949 17.2459 28.1048 14.9322 28.1048C7.88213 28.1048 6.29163 26.0596 6.29163 17.8465C6.29163 9.63347 7.88213 7.55273 14.9322 7.55273C21.9822 7.55273 23.3199 9.52361 23.3935 17.4459V17.4491ZM10.7015 16.3538H18.9804C18.9452 12.4121 18.1484 11.3879 14.9322 11.3879C11.716 11.3879 10.7367 12.4088 10.7015 16.3538Z" fill="#BFBFBF"/>
<path d="M40.3129 13.5449V26.249C40.3129 26.724 40.2393 27.0891 39.5896 27.3088C37.7111 27.8548 34.5269 28.1133 31.4547 28.1133C26.392 28.1133 23.8254 27.3088 23.8254 22.0165C23.8254 17.3801 26.248 16.2137 30.6963 16.2137H35.9382V14.3171C35.9382 12.2719 34.7445 11.3964 31.8515 11.3964H25.9216C25.4863 11.3964 25.3807 11.2865 25.3807 10.8503V8.6242C25.3807 8.1848 25.5247 8.11371 25.8864 8.0394C28.0561 7.63876 30.0082 7.56445 31.8515 7.56445C38.2167 7.56445 40.3129 9.60964 40.3129 13.5514V13.5449ZM30.9491 19.3865C29.0322 19.3865 28.1649 20.0068 28.1649 21.8323C28.1649 23.913 29.141 24.4235 31.8163 24.4235C32.7188 24.4235 34.7093 24.3492 35.9382 24.0229V19.3865H30.9491Z" fill="#BFBFBF"/>
<path d="M58.7908 0.0371094C59.1876 0.0371094 59.3316 0.182502 59.3316 0.583139V26.6827C59.3316 27.1932 59.114 27.3774 58.682 27.4485C55.6098 27.959 53.5489 28.1044 50.9439 28.1044C43.641 28.1044 42.0505 26.0236 42.0505 17.8461C42.0505 9.66856 43.641 7.55229 50.3295 7.55229C52.2112 7.55229 53.7633 7.6266 54.957 7.772V0.58637C54.957 0.185733 55.1362 0.0403403 55.4978 0.0403403H58.7876L58.7908 0.0371094ZM51.0175 11.3907C46.9692 11.3907 46.4252 12.5958 46.4252 17.8526C46.4252 22.8185 46.822 24.2757 50.9087 24.2757C52.0288 24.2757 53.6929 24.1658 54.957 23.9849V11.3907H51.0175Z" fill="#BFBFBF"/>
<path d="M76.4336 7.73693C76.8304 7.73693 77.0128 7.91786 77.0128 8.28296V9.92428C77.0128 10.1795 76.9392 10.3637 76.7952 10.5802L66.961 24.0855H76.8304C77.2272 24.0855 77.4448 24.2665 77.4448 24.6316V27.3682C77.4448 27.7333 77.2272 27.9142 76.8304 27.9142H61.2102C60.8486 27.9142 60.631 27.7333 60.631 27.3682V25.6525C60.631 25.3973 60.6662 25.2131 60.8838 24.9967L70.7532 11.5268H61.6422C61.2454 11.5268 61.063 11.3071 61.063 10.942V8.2765C61.063 7.9114 61.2422 7.73047 61.6422 7.73047H76.4304L76.4336 7.73693Z" fill="#BFBFBF"/>
<path d="M95.4877 7.74023C95.8494 7.74023 96.0286 7.92117 96.0286 8.28626V26.7576C95.9934 33.1096 94.7645 35.4101 87.4232 35.4101C85.0007 35.4101 83.3014 35.3002 81.314 35.0094C80.9876 34.9351 80.8436 34.7542 80.8436 34.4246V32.2696C80.8436 31.8689 80.9876 31.7236 81.3492 31.7236H87.1704C90.7866 31.7236 91.6539 30.848 91.6539 27.9627V27.7818C90.0986 28.037 88.7257 28.1114 87.0264 28.1114C80.338 28.1114 78.6387 25.8109 78.6387 18.4379V8.28949C78.6387 7.9244 78.8179 7.74346 79.1795 7.74346H82.4693C82.8309 7.74346 83.0102 7.9244 83.0102 8.28949V17.8176C83.0102 23.0388 83.6598 24.2407 87.7112 24.2407C88.9049 24.2407 90.3866 24.2051 91.6539 24.021V8.28949C91.6539 7.9244 91.8331 7.74346 92.1947 7.74346H95.4845L95.4877 7.74023Z" fill="#BFBFBF"/>
<path d="M101.802 27.8718C103.769 27.8718 105.363 26.2618 105.363 24.2757C105.363 22.2897 103.769 20.6797 101.802 20.6797C99.8344 20.6797 98.2397 22.2897 98.2397 24.2757C98.2397 26.2618 99.8344 27.8718 101.802 27.8718Z" fill="url(#paint0_linear_790_195)"/>
<path d="M5.78 38.36V40H0.7V32.82H5.71V34.46H2.59V35.49H5.42V37.13H2.59V38.36H5.78ZM10.1121 40L8.57211 35.86V40H6.86211V32.82H9.09211L10.9021 37.69L12.7021 32.82H14.9321V40H13.2221V35.81L11.6721 40H10.1121ZM19.1348 37.81H18.2248V40H16.3348V32.82H19.1348C21.0148 32.82 22.1448 33.66 22.1448 35.27C22.1448 36.89 21.0148 37.81 19.1348 37.81ZM19.1248 34.41H18.2248V36.22H19.1248C19.8748 36.22 20.2648 35.84 20.2648 35.29C20.2648 34.73 19.8748 34.41 19.1248 34.41ZM24.9923 40H23.1023V32.82H26.0423C27.9823 32.82 29.0923 33.69 29.0923 35.22C29.0923 36.14 28.5423 36.9 27.5723 37.31L29.3323 40H27.0823L25.6123 37.61H24.9923V40ZM24.9923 34.38V36.05H25.9623C26.8023 36.05 27.1923 35.79 27.1923 35.22C27.1923 34.65 26.8023 34.38 25.9623 34.38H24.9923ZM35.2624 38.36V40H30.1824V32.82H35.1924V34.46H32.0724V35.49H34.9024V37.13H32.0724V38.36H35.2624ZM42.0945 37.65C42.0945 39.13 40.9145 40.1 39.0445 40.1C37.1745 40.1 35.9745 39.11 35.8445 37.52H37.7545C37.7745 38.2 38.2245 38.63 39.0045 38.63C39.6545 38.63 40.0845 38.38 40.0845 37.93C40.0845 37.62 39.7745 37.39 39.3545 37.31L38.0445 37.06C36.8945 36.84 36.1345 36.17 36.1345 35.01C36.1345 33.67 37.3145 32.73 38.9245 32.73C40.6345 32.73 41.8645 33.71 41.9745 35.26H40.0645C40.0145 34.61 39.5745 34.19 38.9445 34.19C38.3845 34.19 38.0445 34.49 38.0445 34.88C38.0445 35.2 38.3645 35.39 38.7445 35.46L40.1345 35.73C41.4145 35.98 42.0945 36.61 42.0945 37.65ZM47.548 40L47.108 38.67H44.588L44.138 40H42.228L44.888 32.82H46.958L49.588 40H47.548ZM45.868 34.9L45.098 37.18H46.618L45.868 34.9ZM55.9031 37.65C55.9031 39.13 54.7231 40.1 52.8531 40.1C50.9831 40.1 49.7831 39.11 49.6531 37.52H51.5631C51.5831 38.2 52.0331 38.63 52.8131 38.63C53.4631 38.63 53.8931 38.38 53.8931 37.93C53.8931 37.62 53.5831 37.39 53.1631 37.31L51.8531 37.06C50.7031 36.84 49.9431 36.17 49.9431 35.01C49.9431 33.67 51.1231 32.73 52.7331 32.73C54.4431 32.73 55.6731 33.71 55.7831 35.26H53.8731C53.8231 34.61 53.3831 34.19 52.7531 34.19C52.1931 34.19 51.8531 34.49 51.8531 34.88C51.8531 35.2 52.1731 35.39 52.5531 35.46L53.9431 35.73C55.2231 35.98 55.9031 36.61 55.9031 37.65Z" fill="#7B7B7B"/>
<defs>
<linearGradient id="paint0_linear_790_195" x1="101.802" y1="20.6829" x2="101.802" y2="27.8718" gradientUnits="userSpaceOnUse">
<stop stop-color="#FF644E"/>
<stop offset="1" stop-color="#ED0373"/>
</linearGradient>
</defs>
</svg>
