<?xml version="1.0" encoding="UTF-8"?><svg id="Layer_2" xmlns="http://www.w3.org/2000/svg" xmlns:xlink="http://www.w3.org/1999/xlink" viewBox="0 0 227.12 171.6"><defs><style>.cls-1{fill:url(#linear-gradient);}.cls-2{fill:url(#linear-gradient-2);}</style><linearGradient id="linear-gradient" x1="55.52" y1="85.8" x2="227.12" y2="85.8" gradientUnits="userSpaceOnUse"><stop offset="0" stop-color="#ff644e"/><stop offset="1" stop-color="#ed0373"/></linearGradient><linearGradient id="linear-gradient-2" x1="0" y1="98.4" x2="77.08" y2="98.4" xlink:href="#linear-gradient"/></defs><g id="Layer_1-2"><path class="cls-1" d="m226,30.98L86.5,170.48c-1.5,1.5-3.94,1.5-5.44,0l-18.85-18.85c-8.91-8.91-8.91-23.35,0-32.26L174.88,6.68c8.91-8.91,23.35-8.91,32.26,0l18.85,18.85c1.5,1.5,1.5,3.94,0,5.44Z"/><path class="cls-2" d="m58.19,110.06c-6.74,6.74-10.56,15.88-10.57,25.41,0,.56.01,1.13.04,1.68L1.13,90.62c-1.5-1.5-1.5-3.94,0-5.44l18.85-18.85c8.91-8.91,23.35-8.91,32.26,0l24.84,24.84-18.89,18.89Z"/></g></svg>