<svg width="10" height="10" viewBox="0 0 10 10" fill="none" xmlns="http://www.w3.org/2000/svg">
<path d="M5.83331 1.2801C6.23018 1.50924 6.57553 1.81776 6.84781 2.18638C7.12008 2.55499 7.31342 2.97579 7.41575 3.42249C7.51807 3.86919 7.5272 4.33219 7.44254 4.78257C7.35788 5.23295 7.18127 5.66104 6.92373 6.0401L8.98373 8.09968C9.09842 8.2127 9.16506 8.36561 9.16978 8.52656C9.17449 8.68751 9.11691 8.84406 9.00904 8.9636C8.90116 9.08313 8.75131 9.15642 8.59073 9.16819C8.43014 9.17996 8.27121 9.1293 8.14706 9.02676L8.09956 8.98385L6.03998 6.92385C5.54723 7.25855 4.97378 7.4551 4.37931 7.49304C3.78484 7.53097 3.19107 7.40892 2.65976 7.13957C2.12846 6.87021 1.67904 6.46341 1.35827 5.96147C1.0375 5.45954 0.857087 4.88081 0.835813 4.28552L0.833313 4.16676L0.835396 4.04802C0.855894 3.47333 1.02472 2.91372 1.32546 2.42357C1.6262 1.93343 2.04862 1.52942 2.55168 1.25082C3.05474 0.972218 3.62132 0.828498 4.19635 0.833629C4.77138 0.838759 5.33531 0.992565 5.83331 1.2801Z" fill="#C2C2C2"/>
</svg>
