<!-- <svg width="31" height="41" viewBox="0 0 7 10" fill="none" xmlns="http://www.w3.org/2000/svg">
<path d="M6.9916 4.54178C6.9748 4.99102 6.89082 5.4133 6.73965 5.80863C6.58848 6.20395 6.37852 6.55436 6.10978 6.85984C5.84103 7.16532 5.53869 7.42588 5.20276 7.64151C4.86683 7.85714 4.4931 7.99641 4.08158 8.0593V8.74663H5.10198C5.20276 8.74663 5.25315 8.80054 5.25315 8.90836V9.83828C5.25315 9.8832 5.24055 9.91914 5.21536 9.94609C5.19016 9.97305 5.15237 9.99102 5.10198 10H1.88962C1.84763 10 1.81404 9.98203 1.78884 9.94609C1.76365 9.91015 1.75105 9.87421 1.75105 9.83828V8.90836C1.75105 8.80054 1.79724 8.74663 1.88962 8.74663H2.91002V8.0593C2.5069 7.98742 2.13317 7.84816 1.78884 7.64151C1.44451 7.43486 1.14217 7.1743 0.881824 6.85984C0.621476 6.54537 0.415717 6.19497 0.264547 5.80863C0.113377 5.42228 0.025195 5 0 4.54178C0 4.43396 0.0503899 4.38005 0.15117 4.38005H1.0204C1.10438 4.38005 1.15477 4.42947 1.17157 4.5283C1.18836 4.85175 1.25975 5.15723 1.38572 5.44474C1.5117 5.73226 1.67966 5.97934 1.88962 6.18598C2.09958 6.39263 2.34313 6.55885 2.62028 6.68464C2.89742 6.81042 3.19136 6.87332 3.5021 6.87332C3.81284 6.87332 4.10678 6.81042 4.38392 6.68464C4.66107 6.55885 4.90042 6.39263 5.10198 6.18598C5.30354 5.97934 5.4757 5.73226 5.61848 5.44474C5.76125 5.15723 5.83263 4.85175 5.83263 4.5283C5.83263 4.42947 5.87882 4.38005 5.97121 4.38005H6.85303C6.89502 4.38005 6.93281 4.39353 6.96641 4.42049C7 4.44744 7.0084 4.48787 6.9916 4.54178ZM3.5021 5.61995C3.30054 5.61995 3.11158 5.57951 2.93521 5.49865C2.75885 5.41779 2.60348 5.30548 2.46911 5.16173C2.33473 5.01797 2.22975 4.85175 2.15417 4.66307C2.07858 4.47439 2.04079 4.27224 2.04079 4.0566V1.56334C2.04079 1.34771 2.07858 1.14555 2.15417 0.956873C2.22975 0.768194 2.33473 0.601977 2.46911 0.458221C2.60348 0.314465 2.75885 0.202156 2.93521 0.121294C3.11158 0.0404313 3.30054 0 3.5021 0C3.70366 0 3.89262 0.0404313 4.06899 0.121294C4.24535 0.202156 4.40072 0.314465 4.53509 0.458221C4.66947 0.601977 4.77445 0.768194 4.85003 0.956873C4.92561 1.14555 4.96341 1.34771 4.96341 1.56334V4.0566C4.96341 4.27224 4.92561 4.47439 4.85003 4.66307C4.77445 4.85175 4.66947 5.01797 4.53509 5.16173C4.40072 5.30548 4.24535 5.41779 4.06899 5.49865C3.89262 5.57951 3.70366 5.61995 3.5021 5.61995Z" fill="#C2C2C2"/>
</svg> -->


<svg width="35" height="46" viewBox="0 0 18 26" fill="none" xmlns="http://www.w3.org/2000/svg">
<path d="M10.2468 20.4116C10.2488 20.4409 10.2498 20.4701 10.2498 20.4994V24.2492C10.2498 24.9397 9.69052 25.4991 8.99993 25.4991C8.30935 25.4991 7.75002 24.9397 7.75002 24.2492V20.4994C7.75002 20.4701 7.75103 20.4409 7.75305 20.4116C3.51161 19.8068 0.249512 16.159 0.249512 11.75H2.74934C2.74934 15.2019 5.54803 18.0006 8.99993 18.0006C12.4518 18.0006 15.2505 15.2019 15.2505 11.75H17.7504C17.7504 16.159 14.4893 19.8068 10.2468 20.4116Z" fill="#BFBFBF"/>
<path d="M9.00024 0.5C11.071 0.5 12.75 2.17901 12.75 4.24975V11.7503C12.75 13.821 11.071 15.5 9.00024 15.5C6.9295 15.5 5.25049 13.821 5.25049 11.7503V4.25076C5.25049 2.18002 6.9295 0.50101 9.00024 0.50101V0.5Z" fill="#BFBFBF"/>
</svg>
