
<svg width="11" height="6" viewBox="0 0 11 6" fill="none" xmlns="http://www.w3.org/2000/svg">
<path d="M10.1912 2.75363C10.1198 2.84603 10.0145 2.90803 9.89831 2.92601C9.78216 2.944 9.66472 2.91649 9.5718 2.84953C7.81241 1.5817 6.11133 2.25733 4.67509 2.88215L1.78712 4.1385L4.26944 5.06152C4.32411 5.08077 4.37399 5.11055 4.41617 5.14912C4.45836 5.18769 4.49199 5.23428 4.51513 5.28617C4.53826 5.33805 4.55042 5.3942 4.5509 5.45132C4.55138 5.50845 4.54017 5.56542 4.51793 5.6189C4.49569 5.67238 4.46285 5.72131 4.42135 5.76282C4.37984 5.80434 4.33049 5.83761 4.27618 5.8607C4.22187 5.88379 4.16368 5.89623 4.10501 5.89731C4.04634 5.89838 3.98837 5.88805 3.93447 5.86694L0.465119 4.57692C0.356708 4.53659 0.270385 4.45549 0.22513 4.35147C0.179876 4.24744 0.179396 4.129 0.223798 4.0222L1.64517 0.604554C1.66646 0.550729 1.69844 0.501278 1.73921 0.459086C1.77999 0.416895 1.82877 0.382807 1.88269 0.358812C1.9366 0.334818 1.99459 0.321397 2.05326 0.319332C2.11193 0.317268 2.1701 0.326602 2.2244 0.346789C2.27869 0.366976 2.328 0.397613 2.36947 0.436911C2.41094 0.476209 2.44372 0.523382 2.46591 0.575676C2.4881 0.627971 2.49926 0.68434 2.49872 0.741495C2.49818 0.79865 2.48596 0.855446 2.46278 0.908569L1.44579 3.35389L4.33376 2.09753C5.75003 1.48141 7.91433 0.569264 10.11 2.15257C10.2029 2.21958 10.2636 2.32053 10.2788 2.43325C10.2941 2.54596 10.2625 2.6612 10.1912 2.75363Z" fill="#C2C2C2"/>
</svg>