<svg width="150" height="148" viewBox="0 0 150 148" fill="none" xmlns="http://www.w3.org/2000/svg">
<path d="M103.57 143.987C103.143 144.99 102.571 145.851 101.853 146.57C101.135 147.29 100.196 147.654 99.0386 147.663C97.8807 147.672 96.9383 147.465 96.2113 147.042C95.4844 146.619 94.8271 145.839 94.2394 144.701L66.4296 85.3635C65.6972 84.2266 64.8228 83.4479 63.8064 83.0272L3.46256 56.4979C2.3014 56.0783 1.50045 55.4418 1.0597 54.5884C0.618951 53.7349 0.394214 52.737 0.385491 51.5946C0.376768 50.4522 0.659697 49.5932 1.23428 49.0176C1.80886 48.442 2.67237 47.7928 3.8248 47.07L142.423 0.385518C144.444 -0.343937 146.184 0.0711902 147.643 1.6309C149.102 3.19061 149.477 4.9014 148.768 6.76329L103.57 143.987Z" fill="url(#paint0_linear_190_804)"/>
<defs>
<linearGradient id="paint0_linear_190_804" x1="149.64" y1="73.6361" x2="0.562493" y2="74.7745" gradientUnits="userSpaceOnUse">
<stop stop-color="#ED0373" stop-opacity="0.9"/>
<stop offset="0.588542" stop-color="#FF644E"/>
</linearGradient>
</defs>
</svg>



