<svg width="140" height="125" viewBox="0 0 140 125" fill="none" xmlns="http://www.w3.org/2000/svg">
<path d="M23.3333 20.8333H90.3291C92.1859 20.834 94.0157 21.2304 95.6665 21.9895C97.3172 22.7486 98.7411 23.8486 99.8199 25.1979L127.242 59.4739C127.951 60.3561 128.332 61.4144 128.332 62.5C128.332 63.5856 127.951 64.6438 127.242 65.526L99.8199 99.8021C98.7411 101.151 97.3172 102.251 95.6665 103.01C94.0157 103.77 92.1859 104.166 90.3291 104.167H23.3333C16.8991 104.167 11.6666 99.4948 11.6666 93.75V31.25C11.6666 25.5052 16.8991 20.8333 23.3333 20.8333ZM23.3333 93.75H90.3291L115.331 62.5L90.3291 31.25H23.3333V93.75Z" fill="#C2C2C2"/>
</svg>
