<svg width="11" height="11" viewBox="0 0 11 11" fill="none" xmlns="http://www.w3.org/2000/svg">
<path fill-rule="evenodd" clip-rule="evenodd" d="M0 1.5C0 1.10218 0.158035 0.720644 0.43934 0.43934C0.720644 0.158035 1.10218 0 1.5 0H4.586C4.98362 0.000217509 5.36488 0.158298 5.646 0.4395L9.646 4.4395C9.92721 4.72079 10.0852 5.10225 10.0852 5.5C10.0852 5.89775 9.92721 6.27921 9.646 6.5605L6.561 9.6465C6.42171 9.78581 6.25634 9.89633 6.07433 9.97172C5.89233 10.0471 5.69725 10.0859 5.50025 10.0859C5.30325 10.0859 5.10817 10.0471 4.92617 9.97172C4.74416 9.89633 4.57879 9.78581 4.4395 9.6465L0.4395 5.6465C0.158176 5.36526 8.49561e-05 4.98379 0 4.586V1.5ZM2.5 2C2.36739 2 2.24021 2.05268 2.14645 2.14645C2.05268 2.24021 2 2.36739 2 2.5C2 2.63261 2.05268 2.75979 2.14645 2.85355C2.24021 2.94732 2.36739 3 2.5 3C2.63261 3 2.76029 2.94732 2.85405 2.85355C2.94782 2.75979 3.0005 2.63261 3.0005 2.5C3.0005 2.36739 2.94782 2.24021 2.85405 2.14645C2.76029 2.05268 2.63261 2 2.5 2Z" fill="#C2C2C2"/>
</svg>
