<svg width="15" height="15" viewBox="0 0 121 104" fill="#C2C2C2" xmlns="http://www.w3.org/2000/svg">
<path d="M68.0625 8.08318C68.0625 10.3217 67.0895 12.3333 65.5417 13.7198V23.2082H90.75C94.7614 23.2082 98.6085 24.8017 101.445 27.6382C104.281 30.4747 105.875 34.3218 105.875 38.3332V88.7498C105.875 92.7612 104.281 96.6083 101.445 99.4448C98.6085 102.281 94.7614 103.875 90.75 103.875H30.25C26.2386 103.875 22.3915 102.281 19.555 99.4448C16.7185 96.6083 15.125 92.7612 15.125 88.7498V38.3332C15.125 34.3218 16.7185 30.4747 19.555 27.6382C22.3915 24.8017 26.2386 23.2082 30.25 23.2082H55.4583V13.7198C54.5181 12.8788 53.8031 11.8159 53.3786 10.628C52.9541 9.44014 52.8334 8.16492 53.0277 6.91848C53.222 5.67205 53.7249 4.494 54.4908 3.49162C55.2567 2.48924 56.2611 1.69437 57.4127 1.17939C58.5643 0.664404 59.8264 0.445669 61.0841 0.5431C62.3418 0.640531 63.5552 1.05103 64.6137 1.73723C65.6722 2.42342 66.5423 3.36351 67.1446 4.47188C67.747 5.58025 68.0625 6.8217 68.0625 8.08318ZM0 48.4165H10.0833V78.6665H0V48.4165ZM121 48.4165H110.917V78.6665H121V48.4165ZM45.375 71.104C47.3807 71.104 49.3043 70.3073 50.7225 68.889C52.1407 67.4708 52.9375 65.5472 52.9375 63.5415C52.9375 61.5358 52.1407 59.6123 50.7225 58.194C49.3043 56.7758 47.3807 55.979 45.375 55.979C43.3693 55.979 41.4457 56.7758 40.0275 58.194C38.6093 59.6123 37.8125 61.5358 37.8125 63.5415C37.8125 65.5472 38.6093 67.4708 40.0275 68.889C41.4457 70.3073 43.3693 71.104 45.375 71.104ZM83.1875 63.5415C83.1875 61.5358 82.3907 59.6123 80.9725 58.194C79.5542 56.7758 77.6307 55.979 75.625 55.979C73.6193 55.979 71.6957 56.7758 70.2775 58.194C68.8593 59.6123 68.0625 61.5358 68.0625 63.5415C68.0625 65.5472 68.8593 67.4708 70.2775 68.889C71.6957 70.3073 73.6193 71.104 75.625 71.104C77.6307 71.104 79.5542 70.3073 80.9725 68.889C82.3907 67.4708 83.1875 65.5472 83.1875 63.5415Z"/>
</svg>
